<svg xmlns="http://www.w3.org/2000/svg" viewBox="-255 346.5 100 100">
  <path d="M-171 351.5h-68c-6.1 0-11 4.6-11 10.3v51.7c0 5.7 4.9 10.3 11 10.3h7.2v15.3c0 .9.6 1.8 1.5 2.2.4.2.7.2 1.1.2.6 0 1.2-.2 1.7-.5l22.7-17.2h33.8c6.1 0 11-4.6 11-10.3v-51.7c0-5.7-4.9-10.3-11-10.3zm5.9 61.9c0 3-2.6 5.4-5.8 5.4h-34.9c-.6 0-1.2.2-1.7.5l-19.1 14.5v-12.6c0-1.3-1.2-2.4-2.6-2.4h-9.8c-3.2 0-5.8-2.4-5.8-5.4V362c0-3 2.6-5.4 5.8-5.4h68.2c3.2 0 5.8 2.4 5.8 5.4v51.4h-.1z"/>
  <path d="M-218.2 377.5c2.1 0 3.7.6 4.8 1.9.6.7 1.1 1.8 1.5 3.2h6.1c-.1-1.8-.8-3.6-2-5.4-2.2-3.2-5.8-4.8-10.7-4.8-3.6 0-6.6 1.2-9 3.6-2.7 2.8-4.1 6.7-4.1 11.8 0 4.7 1.2 8.4 3.6 11.1 2.4 2.7 5.6 4 9.8 4 3.4 0 6.1-1 8.3-3 2.1-2 3.5-4.6 4-7.8h-6.1c-.4 1.5-.9 2.6-1.5 3.4-1.1 1.4-2.7 2.1-4.8 2.1-2 0-3.7-.8-5-2.4-1.3-1.6-2-4.1-2-7.4 0-3.3.6-5.8 1.9-7.6 1.3-1.9 3.1-2.7 5.2-2.7zM-190.2 395l-6.3-22.2h-6.5l9.8 29.2h5.8l9.9-29.2h-6.3z"/>
</svg>
