<svg xmlns="http://www.w3.org/2000/svg" viewBox="-260 342 100 100">
  <path d="M-235 347.038c-11.1 0-20 8.9-20 20v50c0 11.1 8.9 20 20 20h50c11.1 0 20-8.9 20-20v-50c0-11.1-8.9-20-20-20h-50zm30.3 15c1.8 0 3.2.6 4.4 1.8 1.2 1.2 1.8 2.7 1.8 4.4s-.6 3.2-1.8 4.4-2.7 1.8-4.4 1.8-3.2-.6-4.4-1.8-1.8-2.7-1.8-4.4.6-3.2 1.8-4.4 2.6-1.8 4.4-1.8zm2.6 19.5v.5h-.1l-8.5 29.6c-.5 1.7-.7 2.9-.7 3.4 0 .3.1.6.4.9.3.3.5.4.8.4.5 0 1.3.1 2.9-.7 1.5-.9 4.7-2.9 6.5-5.6l3.4 2c-4.3 7.4-12.2 10-17 10-1.8 0-5.3-.5-6.4-1.5-1.1-1-1.6-2.4-1.6-3.9 0-1 .2-2.4.7-4l5.9-20.3c.6-2 .8-2.4.8-3.4 0-.6-.3-1.2-.8-1.7s-1.3-.7-2.2-.7h-1.5l.6-2.5c5.6-.8 11.2-1.2 16.7-2l.1-.5z"/>
</svg>
