<svg xmlns="http://www.w3.org/2000/svg" viewBox="-114.5 347.1 100 100">
  <path d="M-54.6 420.3v-.6l.1-.2.1-.2.1-.2.1-.2.1-.2.2-.2.2-.2.2-.1.2-.1.2-.1.2-.1.2-.1h25V358l-.1-.5-.1-.5-.1-.4-.1-.4-.1-.4-.2-.4-.2-.4-.2-.4-.2-.4-.2-.4-.3-.4-.3-.3-.3-.3-.3-.3-.3-.3-.3-.3-.3-.3-.4-.3-.4-.2-.4-.2-.4-.2-.4-.2-.4-.2-.4-.1-.4-.1-.4-.1-.5-.1-.5-.1h-57.2l-.5.1-.5.1-.4.1-.4.1-.4.1-.4.2-.4.2-.4.2-.4.2-.4.2-.4.3-.3.3-.3.3-.3.3-.3.3-.3.3-.3.3-.3.4-.2.4-.2.4-.2.4-.2.4-.2.4-.1.4-.1.4-.1.4-.1.5-.1.5v78.5l.1.5.1.5.1.4.1.4.1.4.2.4.2.4.2.4.2.4.2.4.3.4.3.3.3.3.3.3.3.3.3.3.3.3.4.3.4.2.4.2.4.2.4.2.4.2.4.1.4.1.4.1.5.1.5.1h38.5v-24.4zm-35.7-39v-14.2H-83.2l.3.1.3.1.3.1.3.1.3.1.3.1.2.1.2.1.2.1.2.1.1.1.1.1.2.2.2.2v.3l.1.2.1.2.1.2.1.2.1.2.1.3.1.3.1.3V373.7l-.1.3-.1.3-.1.3-.1.2-.1.2-.1.2-.1.2-.1.2-.2.2-.2.2-.2.2-.1.1-.1.1-.2.1-.2.1-.2.1-.2.1-.3.1-.3.1-.3.1-.3.1-.3.1-.3.1H-87.3v4h-3zm13.7 0v-14.2H-70.1l.4.1.4.1.4.1.4.1.4.1.4.1.3.1.3.2.3.2.3.2.3.2.3.2.1.1.1.1.2.2.2.3.2.3.2.3.2.3.2.3.1.3.1.3.1.3.1.3.1.4.1.4v2.8l-.1.4-.1.4-.1.3-.1.3-.1.3-.1.3-.2.3-.2.3-.2.3-.2.3-.2.3-.2.3-.1.1-.1.1-.3.2-.3.2-.3.2-.3.2-.3.2-.3.2-.4.1-.4.1-.4.1-.4.1-.4.1-.4.1h-6.5zm15.7 0v-14.2h9.8v2.8h-6.6v3.1h6.3v2.8h-6.3v5.6h-3.2zm-23.9-6.7h.7l.3-.1.3-.1.2-.1.2-.1.2-.1.1-.1.1-.1.1-.2.1-.2.1-.2.1-.2.1-.3v-1.6l-.1-.2-.1-.2-.1-.2-.1-.2-.2-.2-.1-.1-.1-.1-.2-.1-.2-.1-.3-.1-.3-.1h-3v4.8h2.1l.1.2zm13.6 3.9h1.2l.2-.1.2-.1.2-.1.2-.1.2-.1.2-.1.2-.1.2-.1.2-.1.2-.1.1-.1.1-.1.1-.1.1-.2.1-.2.1-.2.1-.2.1-.2.1-.2.1-.2.1-.2.1-.2V373l-.1-.2-.1-.2-.1-.2-.1-.2-.1-.2-.1-.2-.1-.2-.1-.2-.1-.2-.1-.1-.2-.1-.1-.1-.2-.1-.2-.1-.2-.1-.2-.1-.2-.1-.2-.1-.2-.1-.2-.1-.2-.1-.2-.1h-3.5v8.6h2.4zm-19.1 13.8v-3.2h22.6v3.2h-22.6zm0 9.3v-3.2h48.1v3.2h-48.1z"/>
  <path d="M-48.5 420.9h20.6L-51 444.4v-20.9c0-1.4 1.1-2.6 2.5-2.6z"/>
</svg>
