<svg xmlns="http://www.w3.org/2000/svg" viewBox="-303 346.5 100 100">
  <path d="M-235.5 367.3c-1.2 0-1.9-.8-1.9-1.9v-15.6h-40.9c-4.3 0-7.8 3.5-7.8 7.8v77.9c0 4.3 3.5 7.8 7.8 7.8h50.6c4.3 0 7.8-3.5 7.8-7.8v-68.2h-15.6zm-17.5 1.9c4.3 0 7.8 3.5 7.8 7.8s-3.5 7.8-7.8 7.8-7.8-3.5-7.8-7.8 3.5-7.8 7.8-7.8zm-9.4 14.8c2.1 2.9 5.5 4.7 9.4 4.7 3.7 0 7.2-1.8 9.4-4.7 3.7 2.9 6.2 7.4 6.2 12.5 0 1.2-1 1.9-1.9 1.9h-27.3c-1.2 0-1.9-.8-1.9-1.9-.1-5.1 2.4-9.5 6.1-12.5zm21.1 24.2c0 1.2-1 1.9-1.9 1.9h-19.5c-1.2 0-1.9-.8-1.9-1.9s.8-1.9 1.9-1.9h19.5c.9-.1 1.9.7 1.9 1.9zm7.8 25.3h-39c-1.2 0-1.9-.8-1.9-1.9s.8-1.9 1.9-1.9h39c1 0 1.9.8 1.9 1.9s-.9 1.9-1.9 1.9zm0-11.7h-39c-1.2 0-1.9-.8-1.9-1.9s.8-1.9 1.9-1.9h39c1 0 1.9.8 1.9 1.9s-.9 1.9-1.9 1.9z"/>
  <path d="M-233.5 350.9v12.5h12.6z"/>
</svg>
