<svg aria-hidden="true" style="position: absolute; width: 0; height: 0; overflow: hidden;" version="1.1" xmlns="http://www.w3.org/2000/svg" xmlns:xlink="http://www.w3.org/1999/xlink">
<defs>
<symbol id="icon-medium" viewBox="0 0 28 28">
<title>medium</title>
<path d="M9.328 6.578v18.328c0 0.484-0.234 0.938-0.766 0.938-0.187 0-0.359-0.047-0.516-0.125l-7.266-3.641c-0.438-0.219-0.781-0.781-0.781-1.25v-17.813c0-0.391 0.187-0.75 0.609-0.75 0.25 0 0.469 0.125 0.688 0.234l7.984 4c0.016 0.016 0.047 0.063 0.047 0.078zM10.328 8.156l8.344 13.531-8.344-4.156v-9.375zM28 8.437v16.469c0 0.516-0.297 0.875-0.812 0.875-0.266 0-0.516-0.078-0.734-0.203l-6.891-3.437zM27.953 6.563c0 0.063-8.078 13.172-8.703 14.172l-6.094-9.906 5.063-8.234c0.172-0.281 0.484-0.438 0.812-0.438 0.141 0 0.281 0.031 0.406 0.094l8.453 4.219c0.031 0.016 0.063 0.047 0.063 0.094z"></path>
</symbol>
<symbol id="icon-linkedin" viewBox="0 0 32 32">
<title>linkedin</title>
<path d="M29 0h-26c-1.65 0-3 1.35-3 3v26c0 1.65 1.35 3 3 3h26c1.65 0 3-1.35 3-3v-26c0-1.65-1.35-3-3-3zM12 26h-4v-14h4v14zM10 10c-1.106 0-2-0.894-2-2s0.894-2 2-2c1.106 0 2 0.894 2 2s-0.894 2-2 2zM26 26h-4v-8c0-1.106-0.894-2-2-2s-2 0.894-2 2v8h-4v-14h4v2.481c0.825-1.131 2.087-2.481 3.5-2.481 2.488 0 4.5 2.238 4.5 5v9z"></path>
</symbol>

<symbol id="icon-cv" viewBox="-255 346.5 100 100">
<title>cv</title>
  <path d="M-171 351.5h-68c-6.1 0-11 4.6-11 10.3v51.7c0 5.7 4.9 10.3 11 10.3h7.2v15.3c0 .9.6 1.8 1.5 2.2.4.2.7.2 1.1.2.6 0 1.2-.2 1.7-.5l22.7-17.2h33.8c6.1 0 11-4.6 11-10.3v-51.7c0-5.7-4.9-10.3-11-10.3zm5.9 61.9c0 3-2.6 5.4-5.8 5.4h-34.9c-.6 0-1.2.2-1.7.5l-19.1 14.5v-12.6c0-1.3-1.2-2.4-2.6-2.4h-9.8c-3.2 0-5.8-2.4-5.8-5.4V362c0-3 2.6-5.4 5.8-5.4h68.2c3.2 0 5.8 2.4 5.8 5.4v51.4h-.1z"/>
  <path d="M-218.2 377.5c2.1 0 3.7.6 4.8 1.9.6.7 1.1 1.8 1.5 3.2h6.1c-.1-1.8-.8-3.6-2-5.4-2.2-3.2-5.8-4.8-10.7-4.8-3.6 0-6.6 1.2-9 3.6-2.7 2.8-4.1 6.7-4.1 11.8 0 4.7 1.2 8.4 3.6 11.1 2.4 2.7 5.6 4 9.8 4 3.4 0 6.1-1 8.3-3 2.1-2 3.5-4.6 4-7.8h-6.1c-.4 1.5-.9 2.6-1.5 3.4-1.1 1.4-2.7 2.1-4.8 2.1-2 0-3.7-.8-5-2.4-1.3-1.6-2-4.1-2-7.4 0-3.3.6-5.8 1.9-7.6 1.3-1.9 3.1-2.7 5.2-2.7zM-190.2 395l-6.3-22.2h-6.5l9.8 29.2h5.8l9.9-29.2h-6.3z"/>
</symbol>
<symbol id="icon-download" viewBox="-331 347 100 100">
<title>download</title>
  <path d="M-239 365.6l-9.3-11.9c-.4-.4-1.3-.9-2.2-.9h-60.9c-.9 0-1.8.4-2.2.9l-9.3 11.9c-1.3 1.3-2.2 2.6-2.2 4.4v62.3c0 4.9 4 8.8 8.8 8.8h70.7c4.9 0 8.8-4 8.8-8.8V370c0-1.7-.9-3-2.2-4.4zm-42 57.9l-22.1-22.1h13.2v-17.7h17.7v17.7h13.2l-22 22.1zm30.9-57.4h-61.8l2.2-4.4h57.4l2.2 4.4z"/>
</symbol>
<symbol id="icon-email" viewBox="-255 346.5 100 100">
<title>email</title>
  <path d="M-160.1 372.6l-25.4 23.9 25.4 24c.1-.5.1-1 .1-1.5v-45c0-.5 0-1-.1-1.4zM-199.4 402.8l37.2-35.1c-1.8-2.2-4.6-3.7-7.7-3.7h-70c-3.1 0-5.9 1.4-7.7 3.7l37.2 35.1c2.9 2.9 7.9 2.9 11 0zM-249.9 372.5c-.1.5-.1 1-.1 1.5v45c0 .5 0 1 .1 1.5l25.4-24-25.4-24z"/>
  <path d="M-196 406.5c-2.5 2.3-5.7 3.5-9 3.5s-6.5-1.2-9-3.5l-6.9-6.5-26.9 25.4c1.8 2.2 4.6 3.7 7.7 3.7h70c3.1 0 5.9-1.4 7.7-3.7l-26.9-25.4-6.7 6.5z"/>
</symbol>
<symbol id="icon-information" viewBox="-260 342 100 100">
<title>information</title>
  <path d="M-235 347.038c-11.1 0-20 8.9-20 20v50c0 11.1 8.9 20 20 20h50c11.1 0 20-8.9 20-20v-50c0-11.1-8.9-20-20-20h-50zm30.3 15c1.8 0 3.2.6 4.4 1.8 1.2 1.2 1.8 2.7 1.8 4.4s-.6 3.2-1.8 4.4-2.7 1.8-4.4 1.8-3.2-.6-4.4-1.8-1.8-2.7-1.8-4.4.6-3.2 1.8-4.4 2.6-1.8 4.4-1.8zm2.6 19.5v.5h-.1l-8.5 29.6c-.5 1.7-.7 2.9-.7 3.4 0 .3.1.6.4.9.3.3.5.4.8.4.5 0 1.3.1 2.9-.7 1.5-.9 4.7-2.9 6.5-5.6l3.4 2c-4.3 7.4-12.2 10-17 10-1.8 0-5.3-.5-6.4-1.5-1.1-1-1.6-2.4-1.6-3.9 0-1 .2-2.4.7-4l5.9-20.3c.6-2 .8-2.4.8-3.4 0-.6-.3-1.2-.8-1.7s-1.3-.7-2.2-.7h-1.5l.6-2.5c5.6-.8 11.2-1.2 16.7-2l.1-.5z"/>
</symbol>
<symbol id="icon-pdf" viewBox="-114.5 347.1 100 100">
<title>pdf</title>
  <path d="M-54.6 420.3v-.6l.1-.2.1-.2.1-.2.1-.2.1-.2.2-.2.2-.2.2-.1.2-.1.2-.1.2-.1.2-.1h25V358l-.1-.5-.1-.5-.1-.4-.1-.4-.1-.4-.2-.4-.2-.4-.2-.4-.2-.4-.2-.4-.3-.4-.3-.3-.3-.3-.3-.3-.3-.3-.3-.3-.3-.3-.4-.3-.4-.2-.4-.2-.4-.2-.4-.2-.4-.2-.4-.1-.4-.1-.4-.1-.5-.1-.5-.1h-57.2l-.5.1-.5.1-.4.1-.4.1-.4.1-.4.2-.4.2-.4.2-.4.2-.4.2-.4.3-.3.3-.3.3-.3.3-.3.3-.3.3-.3.3-.3.4-.2.4-.2.4-.2.4-.2.4-.2.4-.1.4-.1.4-.1.4-.1.5-.1.5v78.5l.1.5.1.5.1.4.1.4.1.4.2.4.2.4.2.4.2.4.2.4.3.4.3.3.3.3.3.3.3.3.3.3.3.3.4.3.4.2.4.2.4.2.4.2.4.2.4.1.4.1.4.1.5.1.5.1h38.5v-24.4zm-35.7-39v-14.2H-83.2l.3.1.3.1.3.1.3.1.3.1.3.1.2.1.2.1.2.1.2.1.1.1.1.1.2.2.2.2v.3l.1.2.1.2.1.2.1.2.1.2.1.3.1.3.1.3V373.7l-.1.3-.1.3-.1.3-.1.2-.1.2-.1.2-.1.2-.1.2-.2.2-.2.2-.2.2-.1.1-.1.1-.2.1-.2.1-.2.1-.2.1-.3.1-.3.1-.3.1-.3.1-.3.1-.3.1H-87.3v4h-3zm13.7 0v-14.2H-70.1l.4.1.4.1.4.1.4.1.4.1.4.1.3.1.3.2.3.2.3.2.3.2.3.2.1.1.1.1.2.2.2.3.2.3.2.3.2.3.2.3.1.3.1.3.1.3.1.3.1.4.1.4v2.8l-.1.4-.1.4-.1.3-.1.3-.1.3-.1.3-.2.3-.2.3-.2.3-.2.3-.2.3-.2.3-.1.1-.1.1-.3.2-.3.2-.3.2-.3.2-.3.2-.3.2-.4.1-.4.1-.4.1-.4.1-.4.1-.4.1h-6.5zm15.7 0v-14.2h9.8v2.8h-6.6v3.1h6.3v2.8h-6.3v5.6h-3.2zm-23.9-6.7h.7l.3-.1.3-.1.2-.1.2-.1.2-.1.1-.1.1-.1.1-.2.1-.2.1-.2.1-.2.1-.3v-1.6l-.1-.2-.1-.2-.1-.2-.1-.2-.2-.2-.1-.1-.1-.1-.2-.1-.2-.1-.3-.1-.3-.1h-3v4.8h2.1l.1.2zm13.6 3.9h1.2l.2-.1.2-.1.2-.1.2-.1.2-.1.2-.1.2-.1.2-.1.2-.1.2-.1.1-.1.1-.1.1-.1.1-.2.1-.2.1-.2.1-.2.1-.2.1-.2.1-.2.1-.2.1-.2V373l-.1-.2-.1-.2-.1-.2-.1-.2-.1-.2-.1-.2-.1-.2-.1-.2-.1-.2-.1-.1-.2-.1-.1-.1-.2-.1-.2-.1-.2-.1-.2-.1-.2-.1-.2-.1-.2-.1-.2-.1-.2-.1-.2-.1h-3.5v8.6h2.4zm-19.1 13.8v-3.2h22.6v3.2h-22.6zm0 9.3v-3.2h48.1v3.2h-48.1z"/>
  <path d="M-48.5 420.9h20.6L-51 444.4v-20.9c0-1.4 1.1-2.6 2.5-2.6z"/>
</symbol>
<symbol id="icon-resume" viewBox="-303 346.5 100 100">
<title>resume</title>
  <path d="M-235.5 367.3c-1.2 0-1.9-.8-1.9-1.9v-15.6h-40.9c-4.3 0-7.8 3.5-7.8 7.8v77.9c0 4.3 3.5 7.8 7.8 7.8h50.6c4.3 0 7.8-3.5 7.8-7.8v-68.2h-15.6zm-17.5 1.9c4.3 0 7.8 3.5 7.8 7.8s-3.5 7.8-7.8 7.8-7.8-3.5-7.8-7.8 3.5-7.8 7.8-7.8zm-9.4 14.8c2.1 2.9 5.5 4.7 9.4 4.7 3.7 0 7.2-1.8 9.4-4.7 3.7 2.9 6.2 7.4 6.2 12.5 0 1.2-1 1.9-1.9 1.9h-27.3c-1.2 0-1.9-.8-1.9-1.9-.1-5.1 2.4-9.5 6.1-12.5zm21.1 24.2c0 1.2-1 1.9-1.9 1.9h-19.5c-1.2 0-1.9-.8-1.9-1.9s.8-1.9 1.9-1.9h19.5c.9-.1 1.9.7 1.9 1.9zm7.8 25.3h-39c-1.2 0-1.9-.8-1.9-1.9s.8-1.9 1.9-1.9h39c1 0 1.9.8 1.9 1.9s-.9 1.9-1.9 1.9zm0-11.7h-39c-1.2 0-1.9-.8-1.9-1.9s.8-1.9 1.9-1.9h39c1 0 1.9.8 1.9 1.9s-.9 1.9-1.9 1.9z"/>
  <path d="M-233.5 350.9v12.5h12.6z"/>
</symbol>

</defs>
</svg>


