<?xml version="1.0" encoding="utf-8"?>
<!-- Generator: Adobe Illustrator 13.0.0, SVG Export Plug-In . SVG Version: 6.00 Build 14948)  -->
<!DOCTYPE svg PUBLIC "-//W3C//DTD SVG 1.1//EN" "http://www.w3.org/Graphics/SVG/1.1/DTD/svg11.dtd">
<svg version="1.1" id="Layer_1" xmlns="http://www.w3.org/2000/svg" xmlns:xlink="http://www.w3.org/1999/xlink" x="0px" y="0px"
	 width="79px" height="82px" viewBox="12.5 -14.5 79 82" enable-background="new 12.5 -14.5 79 82" xml:space="preserve">
<g>
	<path d="M51.255-2.516c-17.48,0-31.662,14.179-31.662,31.665c0,11.668,6.333,21.843,15.734,27.332l4.3,14.108h5.238V65.88h1.373
		v4.709h4.327V65.88h1.379v4.709h4.326V65.88h1.377v4.709h5.242l4.295-14.108c9.398-5.49,15.735-15.664,15.738-27.332
		C82.924,11.664,68.74-2.516,51.255-2.516z M36.78,35.469c-4.787,0-8.668-3.881-8.668-8.668c0-4.786,3.881-8.667,8.668-8.667
		c4.789,0,8.669,3.881,8.669,8.667C45.449,31.588,41.569,35.469,36.78,35.469z M54.564,45.236c-1.154,0.677-2.635,0.295-3.312-0.862
		c-0.68,1.157-2.161,1.539-3.312,0.862c-1.149-0.681-1.535-2.159-0.858-3.308c0,0,3.813-6.927,4.168-6.927
		c0.362,0,4.165,6.927,4.165,6.927C56.098,43.077,55.709,44.556,54.564,45.236z M65.725,35.469c-4.787,0-8.668-3.881-8.668-8.668
		c0-4.786,3.881-8.667,8.668-8.667s8.67,3.881,8.67,8.667C74.395,31.588,70.51,35.469,65.725,35.469z"/>
</g>
</svg>
